<?xml version="1.0" encoding="UTF-8" standalone="no"?>
<svg width="45px" height="48px" viewBox="0 0 45 48" version="1.1" xmlns="http://www.w3.org/2000/svg" xmlns:xlink="http://www.w3.org/1999/xlink">
    <!-- Generator: Sketch 42 (36781) - http://www.bohemiancoding.com/sketch -->
    <title>Icn-feature_1</title>
    <desc>Created with Sketch.</desc>
    <defs></defs>
    <g id="Main" stroke="none" stroke-width="1" fill="none" fill-rule="evenodd">
        <g id="DSK-GymRush-land-v2" transform="translate(-583.000000, -4514.000000)" fill-rule="nonzero" fill="#F2F2F2">
            <g id="Section:-Together" transform="translate(0.000000, 2936.000000)">
                <g id="Card:-Trainers" transform="translate(148.000000, 1209.000000)">
                    <g id="Group-11" transform="translate(0.000000, 176.000000)">
                        <g id="Group-10" transform="translate(0.000000, 64.000000)">
                            <g id="Icn-feature_1-rev" transform="translate(435.000000, 129.000000)">
                                <path d="M44.8942582,18.6601659 C44.6965285,19.1036904 44.2547185,19.3897245 43.7672975,19.3897245 L36.1044086,19.3897245 L36.1044086,46.7734388 C36.1044086,47.4509912 35.5526391,48 34.8716797,48 L23.0431535,48 C27.969631,45.065575 31.2760563,39.7045214 31.2760563,33.5879061 C31.2760563,24.3320301 23.7080874,16.8016804 14.4054226,16.8016804 C13.7178064,16.8016804 13.0410383,16.8477991 12.3746251,16.9275256 L27.4267372,0.402802692 C27.6604626,0.146451405 27.9923132,0 28.3401893,0 C28.6880654,0 29.019916,0.146451405 29.2536414,0.403048005 L44.6807496,17.3396501 C45.0081624,17.6987872 45.0917414,18.2166414 44.8942582,18.6601659 Z M15.4066449,39.3348359 L16.6990378,39.3348359 C18.0883232,39.3348359 19.218489,38.2103246 19.218489,36.8279901 C19.218489,35.4456557 18.0883232,34.3211444 16.6990378,34.3211444 L15.4066449,34.3211444 L15.4066449,39.3348359 Z M9.12909663,29.3606856 C9.12909663,30.7440013 10.2590159,31.8682673 11.6478082,31.8682673 L12.9411873,31.8682673 L12.9411873,26.8545758 L11.6478082,26.8545758 C10.2590159,26.8545758 9.12909663,27.9788418 9.12909663,29.3606856 Z M28.8105986,33.5879061 C28.8105986,41.4913757 22.3483875,47.9212548 14.4054226,47.9212548 C6.46221108,47.9212548 0,41.4913757 0,33.5879061 C0,25.6846818 6.46221108,19.2548028 14.4054226,19.2548028 C22.3483875,19.2548028 28.8105986,25.6846818 28.8105986,33.5879061 Z M15.4066449,31.868022 L15.4066449,26.8543305 L20.4512179,26.8543305 C21.1321773,26.8543305 21.6839467,26.3053217 21.6839467,25.6277693 C21.6839467,24.9502169 21.1321773,24.4012082 20.4512179,24.4012082 L15.4066449,24.4012082 L15.4066449,23.4557748 C15.4066449,22.7782224 14.8548755,22.2292136 14.1739161,22.2292136 C13.4929567,22.2292136 12.9411873,22.7782224 12.9411873,23.4557748 L12.9411873,24.4012082 L11.6478082,24.4012082 C8.89956253,24.4012082 6.66363897,26.6256995 6.66363897,29.3619122 C6.66363897,32.0964077 8.89931598,34.3211444 11.6478082,34.3211444 L12.9411873,34.3211444 L12.9411873,39.3348359 L7.8963678,39.3348359 C7.2154084,39.3348359 6.66363897,39.8838447 6.66363897,40.5613971 C6.66363897,41.2389495 7.2154084,41.7879582 7.8963678,41.7879582 L12.9411873,41.7879582 L12.9411873,43.1366849 C12.9411873,43.8142373 13.4929567,44.3632461 14.1739161,44.3632461 C14.8548755,44.3632461 15.4066449,43.8142373 15.4066449,43.1366849 L15.4066449,41.7879582 L16.6990378,41.7879582 C19.44753,41.7879582 21.6839467,39.5629763 21.6839467,36.8279901 C21.6839467,34.093004 19.4477766,31.868022 16.6990378,31.868022 L15.4066449,31.868022 Z" id="Shape" transform="translate(22.500000, 24.000000) scale(-1, -1) translate(-22.500000, -24.000000) "></path>
                            </g>
                        </g>
                    </g>
                </g>
            </g>
        </g>
    </g>
</svg>