<?xml version="1.0" encoding="UTF-8" standalone="no"?>
<svg width="64px" height="47px" viewBox="0 0 64 47" version="1.1" xmlns="http://www.w3.org/2000/svg" xmlns:xlink="http://www.w3.org/1999/xlink">
    <!-- Generator: Sketch 42 (36781) - http://www.bohemiancoding.com/sketch -->
    <title>Icn-feature_2</title>
    <desc>Created with Sketch.</desc>
    <defs></defs>
    <g id="Main" stroke="none" stroke-width="1" fill="none" fill-rule="evenodd">
        <g id="DSK-GymRush-land-v2" transform="translate(-391.000000, -4515.000000)" fill-rule="nonzero" fill="#F2F2F2">
            <g id="Section:-Together" transform="translate(0.000000, 2936.000000)">
                <g id="Card:-Trainers" transform="translate(148.000000, 1209.000000)">
                    <g id="Group-11" transform="translate(0.000000, 176.000000)">
                        <g id="Group-10" transform="translate(0.000000, 64.000000)">
                            <g id="Icn-feature_2-rev" transform="translate(243.000000, 130.000000)">
                                <path d="M57.32525,3.952125 L55.713125,3.952125 L55.713125,1.274875 C55.713125,0.570875 55.14225,0 54.43825,0 C53.73425,0 53.163375,0.570875 53.163375,1.274875 L53.163375,3.952125 L10.836625,3.952125 L10.836625,1.274875 C10.836625,0.570875 10.26575,0 9.56175,0 C8.85775,0 8.286875,0.570875 8.286875,1.274875 L8.286875,3.952125 L6.67475,3.952125 C2.99425,3.952125 0,6.946375 0,10.62675 L0,39.9865 C0,43.667 2.99425,46.66125 6.67475,46.66125 L57.325125,46.66125 C61.00575,46.66125 64,43.667 64,39.9865 L64,10.626875 C64,6.946375 61.00575,3.952125 57.32525,3.952125 Z M61.45025,11.3465 L2.54975,11.3465 L2.54975,10.62675 C2.54975,8.3525 4.40025,6.502 6.67475,6.502 L8.286875,6.502 L8.286875,8.159375 C8.286875,8.863375 8.85775,9.43425 9.56175,9.43425 C10.26575,9.43425 10.836625,8.863375 10.836625,8.159375 L10.836625,6.502 L53.163375,6.502 L53.163375,8.159375 C53.163375,8.863375 53.73425,9.43425 54.43825,9.43425 C55.14225,9.43425 55.713125,8.863375 55.713125,8.159375 L55.713125,6.502 L57.32525,6.502 C59.599625,6.502 61.45025,8.3525 61.45025,10.62675 L61.45025,11.3465 Z M30.590125,28.459375 C32.391,29.191875 33.703375,30.657 33.7035,33.3125 L33.7035,33.8925 C33.7035,38.653875 30.71225,40.42425 27.049625,40.42425 C22.53225,40.42425 20.548375,37.555 20.54825,35.235625 C20.54825,34.2895 20.884,34.04525 21.738625,34.04525 C22.776375,34.04525 23.051125,34.4115 23.051125,35.052375 C23.051125,36.364875 24.08875,38.104625 27.0495,38.104625 C29.7355,38.104625 31.1395,36.822625 31.1395,33.892625 L31.1395,33.312625 C31.1395,30.657125 29.521875,29.58875 27.0495,29.58875 C26.408625,29.58875 26.1645,29.07 26.1645,28.5205 C26.1645,28.001625 26.408625,27.45225 27.0495,27.45225 C29.2165,27.45225 30.59,26.71975 30.59,23.789625 C30.59,21.31725 29.460875,20.2185 27.171625,20.2185 C24.3025,20.2185 23.6005,21.866625 23.6005,23.1485 C23.6005,23.819875 23.264625,24.27775 22.3795,24.27775 C21.28075,24.27775 21.036625,23.9725 21.036625,22.965375 C21.036625,21.134 22.288,17.929125 27.232625,17.929125 C30.65125,17.929125 33.0625,19.363625 33.0625,23.3315 C33.0625,25.987 32.02475,27.78775 30.590125,28.459375 Z M39.35025,17.8985 C39.8995,17.8985 40.4795,18.23425 40.47925,18.814125 L40.47925,39.32525 C40.47925,39.935625 39.838375,40.241 39.197375,40.241 C38.556375,40.241 37.915375,39.935625 37.915375,39.32525 L37.915375,21.744375 L36.78625,23.423125 C36.572625,23.66725 36.3285,23.758875 36.14525,23.758875 C35.59575,23.758875 35.199,23.24 35.199,22.6905 C35.199,22.32425 35.473875,21.835875 35.7485,21.62225 L38.556625,18.29525 C38.77025,18.08175 38.984,17.8985 39.35025,17.8985 Z" id="Combined-Shape"></path>
                            </g>
                        </g>
                    </g>
                </g>
            </g>
        </g>
    </g>
</svg>