<?xml version="1.0" encoding="UTF-8" standalone="no"?>
<svg width="72px" height="49px" viewBox="0 0 72 49" version="1.1" xmlns="http://www.w3.org/2000/svg" xmlns:xlink="http://www.w3.org/1999/xlink">
    <!-- Generator: Sketch 42 (36781) - http://www.bohemiancoding.com/sketch -->
    <title>Icn-feature_4</title>
    <desc>Created with Sketch.</desc>
    <defs></defs>
    <g id="Main" stroke="none" stroke-width="1" fill="none" fill-rule="evenodd">
        <g id="DSK-GymRush-land-v2" transform="translate(-983.000000, -4513.000000)" fill-rule="nonzero" fill="#F2F2F2">
            <g id="Section:-Together" transform="translate(0.000000, 2936.000000)">
                <g id="Group-3" transform="translate(744.000000, 1209.000000)">
                    <g id="Group-15" transform="translate(0.000000, 176.000000)">
                        <g id="Group-4" transform="translate(0.000000, 160.000000)">
                            <g id="Icn-feature_4-rev" transform="translate(239.000000, 32.000000)">
                                <path d="M70.2,45.3703704 C71.1947813,45.3703704 72,46.1822164 72,47.1851852 C72,48.1881539 71.1947813,49 70.2,49 L1.8,49 C0.80521875,49 0,48.1881539 0,47.1851852 C0,46.1822164 0.80521875,45.3703704 1.8,45.3703704 L70.2,45.3703704 Z M68.4,0 C69.3947812,0 70.2,0.811846065 70.2,1.81481481 L70.2,12.7037037 C70.2,13.7066725 69.3947812,14.5185185 68.4,14.5185185 C67.4052187,14.5185185 66.6,13.7066725 66.6,12.7037037 L66.6,5.89091725 L33.6036094,35.8316753 C32.8920469,36.4692708 31.8036094,36.4474363 31.1267812,35.7639034 L18,22.5290828 L4.87321875,35.7651794 C4.52165625,36.1196354 4.06082812,36.2962963 3.6,36.2962963 C3.13917187,36.2962963 2.67848437,36.1196354 2.32804687,35.7639034 C1.62478125,35.0549913 1.62478125,33.9068374 2.32804687,33.1977836 L16.7280469,18.679265 C17.4311719,17.9702112 18.5699531,17.9702112 19.2732187,18.679265 L32.4648281,31.9794473 L63.7080469,3.62962963 L57.6,3.62962963 C56.6052187,3.62962963 55.8,2.81778356 55.8,1.81481481 C55.8,0.811846065 56.6052187,0 57.6,0 L68.4,0 Z" id="Combined-Shape"></path>
                            </g>
                        </g>
                    </g>
                </g>
            </g>
        </g>
    </g>
</svg>