<?xml version="1.0" encoding="UTF-8" standalone="no"?>
<svg width="36px" height="36px" viewBox="-1 -1 36 36" version="1.1" xmlns="http://www.w3.org/2000/svg" xmlns:xlink="http://www.w3.org/1999/xlink">
    <!-- Generator: Sketch 42 (36781) - http://www.bohemiancoding.com/sketch -->
    <desc>Created with Sketch.</desc>
    <defs>
        <path d="M34,17 C34,7.61000534 26.3886982,0 17,0 C7.61130176,0 0,7.61000534 0,17 C0,26.3886982 7.61130176,34 17,34 C26.3886982,34 34,26.3886982 34,17 Z M1.36124457,17 C1.36124457,8.37619157 8.37748799,1.35994814 17.0012964,1.35994814 C25.6251049,1.35994814 32.6413483,8.37619157 32.6413483,17 C32.6413483,25.6238084 25.6264013,32.6400519 17.0012964,32.6400519 C8.37748799,32.6400519 1.36124457,25.6238084 1.36124457,17 L1.36124457,17 Z M24.3092351,15.968047 L25.2711813,15.0061008 L17.0012964,6.73621597 L8.732708,15.0061008 L9.69465416,15.968047 L16.3219706,9.34073057 L16.3219706,25.8403111 L17.6819187,25.8403111 L17.6819187,9.34073057 L24.3092351,15.968047 Z" id="path-1"></path>
        <mask id="mask-2" maskContentUnits="userSpaceOnUse" maskUnits="objectBoundingBox" x="-1" y="-1" width="36" height="36">
            <rect x="-1" y="-1" width="36" height="36" fill="white"></rect>
            <use xlink:href="#path-1" fill="black"></use>
        </mask>
    </defs>
    <g id="Combined-Shape" stroke="none" fill="none" fill-rule="nonzero">
        <use fill="#fff" fill-rule="evenodd" xlink:href="#path-1"></use>
        <use stroke="#fff" mask="url(#mask-2)" stroke-width="2" xlink:href="#path-1"></use>
    </g>
</svg>