<svg width="165" height="31" viewBox="64 20 165 31" xmlns="http://www.w3.org/2000/svg" xmlns:xlink="http://www.w3.org/1999/xlink"><defs><path id="a" d="M70 5L79.017.047l-3.173 25.96-8.85 3.994z"/></defs><g fill="none" fill-rule="evenodd"><path d="M134.656 24H229l-2.229 18.058c-.541 4.386-4.566 7.942-8.98 7.942H131l3.656-26z" fill="#EB505C"/><path d="M161.684 34.488c-.37 2.479-1.637 4.08-3.8 4.802l3.277 5.533h-4.45l-2.856-4.935h-2.503l-.737 4.935H147l2.309-15.469h6.142c2.518 0 4.254.406 5.206 1.217.953.812 1.295 2.117 1.027 3.917zm-4.632 1.837c.506-.384.82-.992.945-1.826.124-.833-.022-1.405-.44-1.715-.417-.31-1.205-.464-2.364-.464h-2.711l-.684 4.58h2.642c1.236 0 2.107-.191 2.612-.575zm15.613 5.577c1.02 0 1.88-.358 2.582-1.074.702-.715 1.145-1.692 1.33-2.932l1.275-8.542h3.616l-1.292 8.653c-.335 2.242-1.24 3.965-2.718 5.167-1.477 1.203-3.228 1.804-5.252 1.804-2.024 0-3.599-.605-4.724-1.815s-1.521-2.928-1.189-5.156l1.292-8.653h3.616l-1.276 8.542c-.184 1.24-.03 2.217.467 2.932.495.716 1.253 1.074 2.273 1.074zm17.544-9.46a1.564 1.564 0 0 0-.683 1.084c-.067.45.092.807.477 1.073.385.265 1.32.579 2.803.94 1.484.362 2.596.904 3.338 1.627s1.01 1.778.802 3.165c-.207 1.386-.92 2.511-2.137 3.374-1.218.863-2.716 1.295-4.493 1.295-2.565 0-4.739-.907-6.523-2.722l2.532-2.523c1.528 1.46 3.033 2.191 4.517 2.191.664 0 1.206-.136 1.625-.41.42-.272.664-.641.733-1.106.07-.465-.076-.833-.437-1.106-.361-.273-1.116-.55-2.263-.83-1.822-.428-3.117-.985-3.888-1.671-.77-.686-1.046-1.763-.827-3.231.219-1.468.94-2.6 2.164-3.397 1.224-.797 2.662-1.195 4.315-1.195a9.66 9.66 0 0 1 3.166.531c1.028.354 1.896.856 2.603 1.505l-2.208 2.523c-1.254-1.018-2.63-1.527-4.13-1.527-.602 0-1.097.136-1.486.41zm23.176-3.088H217l-2.309 15.469h-3.615l.908-6.086h-6.443l-.908 6.086h-3.616l2.309-15.469h3.616l-.965 6.462h6.443l.965-6.462z" fill="#FFF"/><g transform="translate(64 20)"><use fill="#EB505C" xlink:href="#a"/><use fill-opacity=".4" fill="#2B364E" xlink:href="#a"/></g><path d="M66.219 27.942c.539-4.386 4.556-7.942 8.98-7.942H143l-3.154 26H64l2.219-18.058z" fill="#2B364E"/><path d="M86.313 32.945h3.877l-.84 5.488C87.376 40.144 84.874 41 81.845 41c-2.535 0-4.547-.752-6.037-2.257-1.49-1.505-2.059-3.405-1.707-5.699.35-2.294 1.52-4.208 3.508-5.742C79.597 25.767 81.83 25 84.308 25c2.477 0 4.517.73 6.12 2.19l-2.396 2.59c-.68-.605-1.329-1.022-1.944-1.25-.615-.229-1.301-.343-2.059-.343-1.465 0-2.767.446-3.908 1.339-1.141.892-1.823 2.069-2.047 3.53-.223 1.46.079 2.63.908 3.507.828.878 1.91 1.317 3.242 1.317 1.334 0 2.48-.229 3.439-.686l.65-4.25zm15.21 7.878h-3.851l.935-6.108-4.542-9.36h4.173l2.847 5.753 4.61-5.754h4.172l-7.408 9.361-.935 6.108zm26.748-9.737l-5.961 8.453h-2.297l-3.347-8.453-1.491 9.737h-3.852l2.368-15.469h5.21l3.144 8.498 5.77-8.498H133l-2.368 15.469h-3.852l1.49-9.737z" fill="#FFF"/></g></svg>