<svg width="36" height="36" viewBox="-1 -1 36 36" xmlns="http://www.w3.org/2000/svg" xmlns:xlink="http://www.w3.org/1999/xlink"><defs><path d="M34 17c0-9.39-7.611-17-17-17S0 7.61 0 17c0 9.389 7.611 17 17 17s17-7.611 17-17zM1.361 17c0-8.624 7.016-15.64 15.64-15.64S32.641 8.376 32.641 17s-7.015 15.64-15.64 15.64c-8.624 0-15.64-7.016-15.64-15.64zm22.948-1.032l.962-.962-8.27-8.27-8.268 8.27.962.962 6.627-6.627v16.5h1.36V9.34l6.627 6.627z" id="a"/><mask id="b" x="-1" y="-1" width="36" height="36"><path fill="#fff" d="M-1-1h36v36H-1z"/><use xlink:href="#a"/></mask></defs><g fill="none"><use fill="#fff" fill-rule="evenodd" xlink:href="#a"/><use stroke="#fff" mask="url(#b)" stroke-width="2" xlink:href="#a"/></g></svg>