<svg width="72" height="49" viewBox="0 0 72 49" xmlns="http://www.w3.org/2000/svg"><title>Icn-feature_4</title><path d="M70.2 45.37c.995 0 1.8.812 1.8 1.815A1.807 1.807 0 0 1 70.2 49H1.8C.805 49 0 48.188 0 47.185s.805-1.815 1.8-1.815h68.4zM68.4 0c.995 0 1.8.812 1.8 1.815v10.889a1.807 1.807 0 0 1-1.8 1.815c-.995 0-1.8-.812-1.8-1.815V5.89L33.604 35.83c-.712.638-1.8.616-2.477-.067L18 22.529 4.873 35.765a1.787 1.787 0 0 1-2.545-.001 1.824 1.824 0 0 1 0-2.566l14.4-14.519a1.789 1.789 0 0 1 2.545 0l13.192 13.3L63.708 3.63H57.6c-.995 0-1.8-.811-1.8-1.814C55.8.812 56.605 0 57.6 0h10.8z" fill="#F2F2F2"/></svg>