<svg width="45" height="48" viewBox="0 0 45 48" xmlns="http://www.w3.org/2000/svg"><title>Icn-feature_1</title><path d="M.106 29.34c.197-.444.64-.73 1.127-.73h7.663V1.227A1.23 1.23 0 0 1 10.128 0h11.829c-4.927 2.934-8.233 8.295-8.233 14.412 0 9.256 7.568 16.786 16.87 16.786.688 0 1.365-.046 2.031-.126L17.573 47.597a1.236 1.236 0 0 1-1.827 0L.32 30.66a1.222 1.222 0 0 1-.213-1.32zM29.593 8.665h-1.292a2.516 2.516 0 0 0-2.52 2.507 2.516 2.516 0 0 0 2.52 2.507h1.292V8.665zm6.278 9.974a2.516 2.516 0 0 0-2.519-2.507H32.06v5.013h1.293a2.515 2.515 0 0 0 2.519-2.506zm-19.682-4.227C16.19 6.51 22.652.08 30.595.08 38.538.079 45 6.509 45 14.412c0 7.903-6.462 14.333-14.405 14.333s-14.406-6.43-14.406-14.333zm13.404 1.72v5.014H24.55a1.23 1.23 0 0 0-1.233 1.226A1.23 1.23 0 0 0 24.55 23.6h5.044v.945a1.23 1.23 0 0 0 1.233 1.227 1.23 1.23 0 0 0 1.233-1.227V23.6h1.293c2.748 0 4.984-2.225 4.984-4.96s-2.235-4.96-4.984-4.96H32.06V8.665h5.045a1.23 1.23 0 0 0 1.232-1.226 1.23 1.23 0 0 0-1.232-1.227H32.06V4.863a1.23 1.23 0 0 0-1.233-1.226 1.23 1.23 0 0 0-1.233 1.226v1.349h-1.292c-2.749 0-4.985 2.225-4.985 4.96s2.236 4.96 4.985 4.96h1.292z" fill="#F2F2F2"/></svg>