<svg width="48" height="48" viewBox="0 0 48 48" xmlns="http://www.w3.org/2000/svg"><title>Icn-find_clients</title><path d="M47.43 44.792L35.721 33.084a20.098 20.098 0 0 0 4.664-12.89C40.385 9.059 31.327 0 20.193 0S0 9.06 0 20.193c0 11.134 9.059 20.192 20.193 20.192 4.897 0 9.39-1.753 12.89-4.663l11.71 11.708a1.86 1.86 0 0 0 1.318.546 1.865 1.865 0 0 0 1.319-3.184zM3.73 20.193c0-9.077 7.386-16.462 16.463-16.462 9.077 0 16.461 7.385 16.461 16.462s-7.384 16.462-16.46 16.462c-9.078 0-16.463-7.385-16.463-16.462zm16.461-9.75c-3.927 0-7.122 3.194-7.122 7.121 0 5.961 5.566 11.595 5.803 11.832a1.86 1.86 0 0 0 1.32.547 1.86 1.86 0 0 0 1.318-.546c.237-.237 5.806-5.872 5.806-11.833 0-3.926-3.196-7.121-7.125-7.121zm-.004 14.8c-1.504-1.91-3.387-4.94-3.387-7.678a3.395 3.395 0 0 1 3.391-3.391 3.396 3.396 0 0 1 3.394 3.39c0 2.888-2.003 5.918-3.398 7.679z" fill="#F2F2F2"/></svg>