<?xml version="1.0" encoding="UTF-8" standalone="no"?>
<svg width="32px" height="32px" viewBox="0 0 32 32" version="1.1" xmlns="http://www.w3.org/2000/svg" xmlns:xlink="http://www.w3.org/1999/xlink">
    <!-- Generator: Sketch 42 (36781) - http://www.bohemiancoding.com/sketch -->
    <title>24:24</title>
    <desc>Created with Sketch.</desc>
    <defs></defs>
    <g id="Main" stroke="none" stroke-width="1" fill="none" fill-rule="evenodd">
        <g id="DSK-RushPro-land-v2" transform="translate(-437.000000, -2381.000000)" fill-rule="nonzero" fill="#FFFFFF">
            <g id="Group-10" transform="translate(0.000000, 1809.000000)">
                <g id="Group-4" transform="translate(413.000000, 548.000000)">
                    <g id="Dynamic-group">
                        <g id="Icn-check" transform="translate(24.000000, 24.000000)">
                            <path d="M16,0 L16,5.331203e-16 C24.8367347,5.331203e-16 32,7.16326531 32,16 C32,24.8367347 24.8367347,32 16,32 C7.16446579,32 0,24.8367347 0,16 C0,7.16326531 7.16326531,0 16,0 Z M24.0036014,10.2869148 L13.7286915,20.2496999 L10.1296519,16.6506603 C9.75510204,16.2761104 9.14765906,16.2761104 8.77190876,16.6506603 C8.39615846,17.0252101 8.39735894,17.6326531 8.77190876,18.0084034 L13.0396158,22.2761104 C13.2268908,22.4633854 13.4729892,22.5570228 13.7178872,22.5570228 C13.9579832,22.5570228 14.1992797,22.4669868 14.3853541,22.2869148 L25.3385354,11.665066 C25.7190876,11.2953181 25.7286915,10.6878752 25.3601441,10.3073229 C24.9891957,9.92557023 24.3829532,9.91716687 24.002401,10.2857143 L24.0036014,10.2869148 Z" id="Combined-Shape"></path>
                        </g>
                    </g>
                </g>
            </g>
        </g>
    </g>
</svg>