<?xml version="1.0" encoding="UTF-8" standalone="no"?>
<svg width="165px" height="31px" viewBox="64 20 165 31" version="1.1" xmlns="http://www.w3.org/2000/svg" xmlns:xlink="http://www.w3.org/1999/xlink">
    <!-- Generator: Sketch 42 (36781) - http://www.bohemiancoding.com/sketch -->
    <desc>Created with Sketch.</desc>
    <defs>
        <polygon id="path-1" points="70 5 79.0168457 0.0471191406 75.844162 26.0072174 66.9936523 30.0008545"></polygon>
    </defs>
    <g id="Logo" stroke="none" stroke-width="1" fill="none" fill-rule="evenodd" transform="translate(64.000000, 20.000000)">
        <g id="Group-26">
            <g>
                <g id="Group-25" transform="translate(67.000000, 4.000000)">
                    <path d="M3.65614149,0 L98,0 L95.7710325,18.0578671 C95.2296085,22.444186 91.2048915,26 86.7905902,26 L0,26 L3.65614149,0 Z" id="Rectangle-14" fill="#EB505C"></path>
                    <path d="M30.6835422,10.4882434 C30.3135706,12.9668174 29.0471666,14.567539 26.8842923,15.2904564 L30.1606528,20.8229599 L25.7108241,20.8229599 L22.8551507,15.8879668 L20.3521221,15.8879668 L19.6154858,20.8229599 L16,20.8229599 L18.3090078,5.35408022 L24.4506984,5.35408022 C26.9691905,5.35408022 28.7047674,5.75979308 29.6574813,6.57123098 C30.6101952,7.38266888 30.9522121,8.68832664 30.6835422,10.4882434 Z M26.0522442,12.3250346 C26.557577,11.9414458 26.8724512,11.3328765 26.9968762,10.4993084 C27.1213011,9.66574041 26.974876,9.09405411 26.5575963,8.78423237 C26.1403166,8.47441062 25.3522809,8.31950207 24.1934656,8.31950207 L21.4818512,8.31950207 L20.7980678,12.9004149 L23.4401536,12.9004149 C24.6762233,12.9004149 25.5469115,12.7086234 26.0522442,12.3250346 Z M41.6649619,17.9017981 C42.6847194,17.9017981 43.5454181,17.5440331 44.2470839,16.8284924 C44.9487498,16.1129517 45.392069,15.1355525 45.5770548,13.8962656 L46.8521292,5.35408022 L50.467615,5.35408022 L49.1760241,14.0069156 C48.8412878,16.2494349 47.9352566,17.9718704 46.4579031,19.1742739 C44.9805496,20.3766773 43.2298671,20.97787 41.2058029,20.97787 C39.1817388,20.97787 37.6072217,20.372989 36.4822045,19.1632089 C35.3571872,17.9534287 34.9609516,16.2346815 35.2934856,14.0069156 L36.5850765,5.35408022 L40.2005623,5.35408022 L38.9254879,13.8962656 C38.7405021,15.1355525 38.8958952,16.1129517 39.3916719,16.8284924 C39.8874486,17.5440331 40.6452043,17.9017981 41.6649619,17.9017981 Z M59.2093943,8.44121715 C58.8210088,8.71415535 58.5932357,9.07560863 58.5260682,9.52558783 C58.4589008,9.97556703 58.6179442,10.333332 59.0032034,10.5988935 C59.3884625,10.864455 60.3227818,11.1779604 61.8061893,11.5394191 C63.2895968,11.9008778 64.4022286,12.4430577 65.1441182,13.1659751 C65.8860077,13.8888925 66.1534445,14.9437459 65.9464366,16.3305671 C65.7394286,17.7173882 65.0268774,18.8423193 63.8087616,19.7053942 C62.5906458,20.568469 61.0931852,21 59.316335,21 C56.7514904,21 54.5770538,20.0926785 52.79296,18.2780083 L55.3249221,15.7551867 C56.8528516,17.2157749 58.3584355,17.9460581 59.8417192,17.9460581 C60.5061067,17.9460581 61.0479359,17.809591 61.4672232,17.5366528 C61.8865104,17.2637146 62.1308353,16.8948848 62.2002049,16.4301521 C62.2695746,15.9654195 62.1237708,15.5965897 61.762789,15.3236515 C61.4018073,15.0507133 60.6473902,14.7740908 59.4995152,14.4937759 C57.678373,14.0659269 56.3825357,13.5089937 55.6119643,12.8229599 C54.841393,12.136926 54.5656715,11.0599428 54.7847916,9.59197787 C55.0039117,8.12401295 55.7252893,6.99170523 56.948946,6.19502075 C58.1726028,5.39833627 59.6110312,5 61.2642744,5 C62.3458354,5 63.400954,5.17703834 64.4296619,5.53112033 C65.4583698,5.88520232 66.3259848,6.38681095 67.0325327,7.03596127 L64.8250373,9.55878285 C63.5709606,8.54079712 62.1945757,8.03181189 60.6958411,8.03181189 C60.0932572,8.03181189 59.5977798,8.16827895 59.2093943,8.44121715 Z M82.3845142,5.35408022 L86,5.35408022 L83.6909922,20.8229599 L80.0755064,20.8229599 L80.9839143,14.7372061 L74.5409332,14.7372061 L73.6325253,20.8229599 L70.0170394,20.8229599 L72.3260472,5.35408022 L75.9415331,5.35408022 L74.976969,11.8160443 L81.4199501,11.8160443 L82.3845142,5.35408022 Z" id="Rush" fill="#FFFFFF"></path>
                </g>
                <g id="Rectangle-13">
                    <use fill="#EB505C" xlink:href="#path-1"></use>
                    <use fill-opacity="0.4" fill="#2B364E" xlink:href="#path-1"></use>
                </g>
                <g id="Group-29">
                    <path d="M2.21889875,7.94213295 C2.757877,3.55581404 6.77467115,0 11.1997354,0 L79,0 L75.8461538,26 L0,26 L2.21889875,7.94213295 Z" id="Rectangle-14" fill="#2B364E"></path>
                    <path d="M22.3133479,12.944675 L26.1899048,12.944675 L25.3496053,18.4329184 C23.3756264,20.1443147 20.8742582,21 17.8454258,21 C15.3104248,21 13.2980678,20.2475871 11.8082943,18.7427386 C10.3185209,17.2378901 9.74927074,15.3384163 10.1005267,13.04426 C10.4517827,10.7501038 11.6214056,8.83587674 13.6094306,7.30152144 C15.5974556,5.76716614 17.8301283,5 20.3075156,5 C22.784903,5 24.8253395,5.73028315 26.4288864,7.19087137 L24.0324477,9.78008299 C23.3513927,9.17519292 22.7032756,8.75841516 22.0880769,8.52973721 C21.4728783,8.30105925 20.7866852,8.18672199 20.0294771,8.18672199 C18.564444,8.18672199 17.261554,8.63300614 16.1207679,9.52558783 C14.9799818,10.4181695 14.2977844,11.5947368 14.0741552,13.055325 C13.850526,14.5159133 14.1529907,15.685104 14.9815585,16.5629322 C15.8101263,17.4407605 16.8910663,17.879668 18.224411,17.879668 C19.5577557,17.879668 20.7038717,17.6509935 21.6627935,17.1936376 L22.3133479,12.944675 Z M37.523642,20.8229599 L33.6717766,20.8229599 L34.6069486,14.7150761 L30.0648717,5.35408022 L34.2377259,5.35408022 L37.0851749,11.1078838 L41.6945423,5.35408022 L45.8673965,5.35408022 L38.458814,14.7150761 L37.523642,20.8229599 Z M64.2705637,11.0857538 L58.3095484,19.5394191 L56.013244,19.5394191 L52.6655846,11.0857538 L51.1747307,20.8229599 L47.3228652,20.8229599 L49.69129,5.35408022 L54.9011849,5.35408022 L58.0445361,13.8520055 L63.8147965,5.35408022 L69,5.35408022 L66.6315752,20.8229599 L62.7797098,20.8229599 L64.2705637,11.0857538 Z" id="Gym" fill="#FFFFFF"></path>
                </g>
            </g>
        </g>
    </g>
</svg>