<?xml version="1.0" encoding="UTF-8" standalone="no"?>
<svg width="48px" height="48px" viewBox="0 0 48 48" version="1.1" xmlns="http://www.w3.org/2000/svg" xmlns:xlink="http://www.w3.org/1999/xlink">
    <!-- Generator: Sketch 42 (36781) - http://www.bohemiancoding.com/sketch -->
    <title>Icn-feature_3</title>
    <desc>Created with Sketch.</desc>
    <defs></defs>
    <g id="Main" stroke="none" stroke-width="1" fill="none" fill-rule="evenodd">
        <g id="DSK-GymRush-land-v2" transform="translate(-1177.000000, -4514.000000)" fill-rule="nonzero" fill="#F2F2F2">
            <g id="Section:-Together" transform="translate(0.000000, 2936.000000)">
                <g id="Group-3" transform="translate(744.000000, 1209.000000)">
                    <g id="Group-15" transform="translate(0.000000, 176.000000)">
                        <g id="Group-4" transform="translate(0.000000, 160.000000)">
                            <g id="Icn-feature_3-rev" transform="translate(433.000000, 33.000000)">
                                <path d="M36,22 L31,22 L31,17 L36,17 L36,22 Z M27,22 L22,22 L22,17 L27,17 L27,22 Z M17,22 L12,22 L12,17 L17,17 L17,22 Z M43.2000024,0 L4.7999976,0 C2.15039892,0 0.024023988,2.14797278 0.024023988,4.7999928 L0,48 L9.5999952,38.4000144 L43.2000024,38.4000144 C45.8496011,38.4000144 48,36.2496176 48,33.6000216 L48,4.7999928 C48,2.14797278 45.8496011,0 43.2000024,0 Z" id="Shape"></path>
                            </g>
                        </g>
                    </g>
                </g>
            </g>
        </g>
    </g>
</svg>