<?xml version="1.0" encoding="UTF-8"?>
<svg width="24px" height="24px" viewBox="0 0 24 24" version="1.1" xmlns="http://www.w3.org/2000/svg" xmlns:xlink="http://www.w3.org/1999/xlink">
    <!-- Generator: Sketch 42 (36781) - http://www.bohemiancoding.com/sketch -->
    <title>Combined Shape</title>
    <desc>Created with Sketch.</desc>
    <defs></defs>
    <g id="Symbols" stroke="none" stroke-width="1" fill="none" fill-rule="evenodd">
        <g id="Icn-check-main-cta" fill-rule="nonzero" fill="#EB505C">
            <path d="M12,0 L12,3.99840225e-16 C18.627551,3.99840225e-16 24,5.37244898 24,12 C24,18.627551 18.627551,24 12,24 C5.37334934,24 0,18.627551 0,12 C0,5.37244898 5.37244898,0 12,0 Z M9.29651861,15.1872749 L6.5972389,12.4879952 C6.31632653,12.2070828 5.8607443,12.2070828 5.57893157,12.4879952 C5.29711885,12.7689076 5.29801921,13.2244898 5.57893157,13.5063025 L8.77971188,16.7070828 C8.92016807,16.847539 9.1047419,16.9177671 9.28841537,16.9177671 C9.46848739,16.9177671 9.64945978,16.8502401 9.78901561,16.7151861 L18.0039016,8.74879952 C18.2893157,8.4714886 18.2965186,8.01590636 18.020108,7.7304922 C17.7418968,7.44417767 17.2872149,7.43787515 17.0018007,7.71428571 L9.29651861,15.1872749 Z" id="Combined-Shape"></path>
        </g>
    </g>
</svg>