<?xml version="1.0" encoding="UTF-8"?>
<svg width="48px" height="48px" viewBox="0 0 48 48" version="1.1" xmlns="http://www.w3.org/2000/svg" xmlns:xlink="http://www.w3.org/1999/xlink">
    <!-- Generator: Sketch 42 (36781) - http://www.bohemiancoding.com/sketch -->
    <title>Icn-find_clients</title>
    <desc>Created with Sketch.</desc>
    <defs>
        <path d="M47.4302176,44.7922073 L35.7212021,33.0841865 C38.631544,29.5844145 40.3849119,25.0903212 40.3849119,20.1935751 C40.3849119,9.05906736 31.3268394,0.000497409326 20.1930777,0.000497409326 C9.05856995,0.000248704663 0,9.05881865 0,20.1933264 C0,31.3270881 9.05856995,40.3851606 20.1930777,40.3851606 C25.0895751,40.3851606 29.5836684,38.6320415 33.0831917,35.7219482 L44.792456,47.4302176 C45.1565596,47.7943212 45.6340725,47.9763731 46.1113368,47.9763731 C46.588601,47.9763731 47.066114,47.7943212 47.4304663,47.4299689 C48.1589223,46.701513 48.1589223,45.5206632 47.4302176,44.7922073 Z M3.73056995,20.1933264 C3.73056995,11.1158549 11.1156062,3.73081865 20.1930777,3.73081865 C29.2698031,3.73081865 36.654342,11.1158549 36.654342,20.1933264 C36.654342,29.2700518 29.2700518,36.6545907 20.1930777,36.6545907 C11.1156062,36.6545907 3.73056995,29.2700518 3.73056995,20.1933264 Z M20.1913368,10.4428601 C16.2642902,10.4428601 13.0691813,13.6374715 13.0691813,17.5642694 C13.0691813,23.5252228 18.6354404,29.1593782 18.872456,29.3963938 C19.2365596,29.7604974 19.7138238,29.9425492 20.1913368,29.9425492 C20.668601,29.9425492 21.1458653,29.7604974 21.5099689,29.3966425 C21.7469845,29.1596269 27.3159793,23.5254715 27.3159793,17.5642694 C27.3157306,13.6377202 24.1196269,10.4428601 20.1913368,10.4428601 Z M20.1868601,25.2427772 C18.6834404,23.332228 16.7997513,20.3025078 16.7997513,17.5645181 C16.7997513,15.6947565 18.3210777,14.1736788 20.1913368,14.1736788 C22.0625907,14.1736788 23.5851606,15.6947565 23.5851606,17.5645181 C23.5851606,20.4517306 21.5815959,23.4824456 20.1868601,25.2427772 Z" id="path-1"></path>
    </defs>
    <g id="Symbols" stroke="none" stroke-width="1" fill="none" fill-rule="evenodd">
        <g id="Icn-find_clients">
            <g id="Icn-find_clients_muted">
                <g id="Combined-Shape">
                    <g fill-rule="nonzero">
                        <use fill="#2B364E" fill-rule="evenodd" xlink:href="#path-1"></use>
                        <use fill-opacity="0.700000048" fill="#FFFFFF" fill-rule="evenodd" xlink:href="#path-1"></use>
                    </g>
                </g>
            </g>
            <g id="Icn-find_clients_dark" fill="#2B364E">
                <g id="Combined-Shape">
                    <path d="M47.4302176,44.7922073 L35.7212021,33.0841865 C38.631544,29.5844145 40.3849119,25.0903212 40.3849119,20.1935751 C40.3849119,9.05906736 31.3268394,0.000497409326 20.1930777,0.000497409326 C9.05856995,0.000248704663 0,9.05881865 0,20.1933264 C0,31.3270881 9.05856995,40.3851606 20.1930777,40.3851606 C25.0895751,40.3851606 29.5836684,38.6320415 33.0831917,35.7219482 L44.792456,47.4302176 C45.1565596,47.7943212 45.6340725,47.9763731 46.1113368,47.9763731 C46.588601,47.9763731 47.066114,47.7943212 47.4304663,47.4299689 C48.1589223,46.701513 48.1589223,45.5206632 47.4302176,44.7922073 Z M3.73056995,20.1933264 C3.73056995,11.1158549 11.1156062,3.73081865 20.1930777,3.73081865 C29.2698031,3.73081865 36.654342,11.1158549 36.654342,20.1933264 C36.654342,29.2700518 29.2700518,36.6545907 20.1930777,36.6545907 C11.1156062,36.6545907 3.73056995,29.2700518 3.73056995,20.1933264 Z M20.1913368,10.4428601 C16.2642902,10.4428601 13.0691813,13.6374715 13.0691813,17.5642694 C13.0691813,23.5252228 18.6354404,29.1593782 18.872456,29.3963938 C19.2365596,29.7604974 19.7138238,29.9425492 20.1913368,29.9425492 C20.668601,29.9425492 21.1458653,29.7604974 21.5099689,29.3966425 C21.7469845,29.1596269 27.3159793,23.5254715 27.3159793,17.5642694 C27.3157306,13.6377202 24.1196269,10.4428601 20.1913368,10.4428601 Z M20.1868601,25.2427772 C18.6834404,23.332228 16.7997513,20.3025078 16.7997513,17.5645181 C16.7997513,15.6947565 18.3210777,14.1736788 20.1913368,14.1736788 C22.0625907,14.1736788 23.5851606,15.6947565 23.5851606,17.5645181 C23.5851606,20.4517306 21.5815959,23.4824456 20.1868601,25.2427772 Z" fill-rule="nonzero"></path>
                </g>
            </g>
        </g>
    </g>
</svg>