<?xml version="1.0" encoding="UTF-8"?>
<svg width="133px" height="25px" viewBox="0 0 133 25" version="1.1" xmlns="http://www.w3.org/2000/svg" xmlns:xlink="http://www.w3.org/1999/xlink">
    <!-- Generator: Sketch 42 (36781) - http://www.bohemiancoding.com/sketch -->
    <title>Logo</title>
    <desc>Created with Sketch.</desc>
    <defs>
        <polygon id="path-1" points="56.4242424 4.03225806 63.6923665 0.037999307 61.1349912 20.9735624 54.000944 24.1942375"></polygon>
    </defs>
    <g id="Symbols" stroke="none" stroke-width="1" fill="none" fill-rule="evenodd">
        <g id="Head-/-Scroll-PHO" transform="translate(-16.000000, -16.000000)">
            <g id="Logo" transform="translate(16.000000, 16.000000)">
                <g id="Logo-/-regular">
                    <g id="Group-26">
                        <g id="Group-25" transform="translate(54.006061, 3.225806)">
                            <path d="M3.22424242,0 L78.9939394,0 L77.4934165,13.0108402 C76.9866075,17.4053157 72.9850583,20.9677419 68.5795468,20.9677419 L0,20.9677419 L3.22424242,0 Z" id="Rectangle-14" fill="#EB505C"></path>
                            <path d="M24.7327946,8.45826083 C24.4345751,10.4571108 23.4137767,11.7480153 21.670369,12.3310133 L24.311314,16.7927096 L20.7244824,16.7927096 L18.4226366,12.8128765 L16.4050438,12.8128765 L15.8112704,16.7927096 L12.8969697,16.7927096 L14.7581699,4.31780663 L19.7087448,4.31780663 C21.738802,4.31780663 23.1377822,4.64499442 23.9057273,5.29937982 C24.6736725,5.95376523 24.9493588,7.00671503 24.7327946,8.45826083 Z M20.9996878,9.93954401 C21.4070166,9.63019819 21.6608243,9.1394165 21.7611184,8.46718422 C21.8614124,7.79495195 21.7433849,7.3339146 21.4070322,7.08405836 C21.0706795,6.83420211 20.4354749,6.70927587 19.5013995,6.70927587 L17.315674,6.70927587 L16.7645031,10.4035604 L18.8941844,10.4035604 C19.8905315,10.4035604 20.5923589,10.2488898 20.9996878,9.93954401 Z M33.5844844,14.4369339 C34.4064708,14.4369339 35.1002461,14.1484138 35.6658313,13.5713648 C36.2314165,12.9943159 36.5887586,12.2060908 36.7378684,11.2066658 L37.7656556,4.31780663 L40.6799563,4.31780663 L39.6388558,11.2958997 C39.3690381,13.104383 38.638722,14.4934439 37.4478855,15.4631241 C36.2570491,16.4328043 34.8458929,16.9176371 33.2143745,16.9176371 C31.5828561,16.9176371 30.3136999,16.4298298 29.4068679,15.4542007 C28.5000358,14.4785715 28.1806458,13.0924851 28.4486884,11.2958997 L29.4897889,4.31780663 L32.4040896,4.31780663 L31.3763024,11.2066658 C31.2271926,12.2060908 31.3524489,12.9943159 31.7520749,13.5713648 C32.151701,14.1484138 32.762498,14.4369339 33.5844844,14.4369339 Z M47.7263603,6.80743319 C47.413298,7.02754464 47.2296991,7.31903922 47.175558,7.68192567 C47.121417,8.04481212 47.2496156,8.33333226 47.5601579,8.54749476 C47.8707001,8.76165725 48.6238181,9.01448418 49.8195344,9.30598313 C51.0152508,9.59748209 51.9120995,10.034724 52.5101074,10.6177219 C53.1081153,11.2007198 53.3236856,12.051408 53.1568246,13.1698122 C52.9899637,14.2882163 52.4156042,15.1954188 51.433729,15.8914469 C50.4518539,16.587475 49.2448099,16.9354839 47.8125609,16.9354839 C45.7451407,16.9354839 43.992413,16.203773 42.5543253,14.7403293 L44.5952402,12.7057957 C45.826844,13.8836895 47.0404359,14.4726275 48.2360524,14.4726275 C48.771589,14.4726275 49.2083362,14.3625734 49.5463072,14.142462 C49.8842781,13.9223505 50.0812187,13.6249071 50.1371349,13.2501227 C50.1930511,12.8753383 50.0755243,12.5778949 49.7845512,12.3577834 C49.493578,12.137672 48.8854721,11.9145894 47.9602153,11.688529 C46.4922643,11.3434894 45.4477409,10.8943498 44.8266137,10.3410967 C44.2054864,9.78784357 43.9832382,8.9193087 44.1598623,7.73546602 C44.3364864,6.55162334 44.9179604,5.63847196 45.9043019,4.99598447 C46.8906434,4.35349699 48.0501039,4.03225806 49.3827182,4.03225806 C50.2545219,4.03225806 51.1050114,4.17503092 51.9342123,4.46058091 C52.7634133,4.74613091 53.4627635,5.150654 54.032284,5.67416232 L52.2529088,7.70869585 C51.242047,6.88773962 50.1325974,6.47726766 48.9245265,6.47726766 C48.4388073,6.47726766 48.0394225,6.58732173 47.7263603,6.80743319 Z M66.4069114,4.31780663 L69.3212121,4.31780663 L67.4600119,16.7927096 L64.5457112,16.7927096 L65.2779431,11.8848436 L60.0845098,11.8848436 L59.3522779,16.7927096 L56.4379772,16.7927096 L58.2991775,4.31780663 L61.2134782,4.31780663 L60.4359811,9.52906795 L65.6294143,9.52906795 L66.4069114,4.31780663 Z" id="Rush" fill="#FFFFFF"></path>
                        </g>
                        <g id="Rectangle-13">
                            <use fill="#EB505C" xlink:href="#path-1"></use>
                            <use fill-opacity="0.4" fill="#2B364E" xlink:href="#path-1"></use>
                        </g>
                        <g id="Group-29">
                            <path d="M1.59979574,7.9419505 C2.13850029,3.55573236 6.15814707,0 10.5791233,0 L63.6787879,0 L61.1365967,20.9677419 L0,20.9677419 L1.59979574,7.9419505 Z" id="Rectangle-14" fill="#2B364E"></path>
                            <path d="M17.9859107,10.439254 L21.1106505,10.439254 L20.4333182,14.8652568 C18.8421716,16.2454151 16.8259172,16.9354839 14.3844948,16.9354839 C12.3411303,16.9354839 10.7190486,16.3286992 9.51820089,15.1151118 C8.31735323,13.9015243 7.85850308,12.3696905 8.14163669,10.5195645 C8.42477029,8.66943854 9.36755726,7.12570705 10.9700259,5.88832374 C12.5724945,4.65094044 14.372164,4.03225806 16.3690884,4.03225806 C18.3660127,4.03225806 20.0107282,4.62119609 21.3032842,5.79908981 L19.3716094,7.8871637 C18.8226377,7.39934913 18.3002161,7.06323803 17.8043287,6.87882033 C17.3084413,6.69440262 16.755328,6.60219515 16.1449724,6.60219515 C14.964067,6.60219515 13.9138587,6.96210173 12.9943159,7.68192567 C12.0747732,8.40174961 11.5248808,9.35059421 11.3446221,10.5284879 C11.1643634,11.7063817 11.4081683,12.6492774 12.0760441,13.3572034 C12.7439199,14.0651294 13.6152231,14.4190871 14.6899797,14.4190871 C15.7647364,14.4190871 16.6885754,14.2346722 17.4615244,13.8658368 L17.9859107,10.439254 Z M30.2463296,16.7927096 L27.1414927,16.7927096 L27.895298,11.8669968 L24.2341087,4.31780663 L27.5976821,4.31780663 L29.8928986,8.95797082 L33.608328,4.31780663 L36.9719014,4.31780663 L31.000135,11.8669968 L30.2463296,16.7927096 Z M51.8059696,8.94012404 L47.0010299,15.757596 L45.1500694,15.757596 L42.451653,8.94012404 L41.2499344,16.7927096 L38.1450974,16.7927096 L40.0541913,4.31780663 L44.2536824,4.31780663 L46.787414,11.1709722 L51.4385936,4.31780663 L55.6181818,4.31780663 L53.7090879,16.7927096 L50.6042509,16.7927096 L51.8059696,8.94012404 Z" id="Gym" fill="#FFFFFF"></path>
                        </g>
                    </g>
                </g>
            </g>
        </g>
    </g>
</svg>